<svg id="Layer_1" data-name="Layer 1" xmlns="http://www.w3.org/2000/svg" viewBox="0 0 710 258.46">
    <defs>
        <style>
            .cls-1,.cls-14,.cls-15{fill:none}.cls-2{fill:#141268}.cls-3{fill:#808bda}.cls-4,.cls-7{fill:#c7ccff}.cls-5{fill:#ffb3b3}.cls-15,.cls-5,.cls-6,.cls-7{fill-rule:evenodd}.cls-6{fill:#823a60}.cls-8{clip-path:url(#clip-path)}.cls-9{clip-path:url(#clip-path-2)}.cls-10{fill:#4844a3}.cls-11{clip-path:url(#clip-path-3)}.cls-12{fill:#fff}.cls-13{fill:#fd7357}.cls-14,.cls-15{stroke-linecap:round}.cls-14{stroke-miterlimit:10;stroke:#0b0146;stroke-width:1.67px}.cls-15{stroke:#823a60;stroke-linejoin:round;stroke-width:2px}.cls-16{fill:#0b0146}
        </style>
        <clipPath id="clip-path">
            <ellipse class="cls-1" cx="409.64" cy="76.95" rx="20.41" ry="8.47" transform="rotate(-86 409.642 76.954)"/>
        </clipPath>
        <clipPath id="clip-path-2">
            <path class="cls-1" d="M-348.23-11529h1440V6909h-1440z"/>
        </clipPath>
        <clipPath id="clip-path-3">
            <ellipse class="cls-1" cx="414.57" cy="77.31" rx="11.99" ry="4.98" transform="rotate(-86 414.566 77.306)"/>
        </clipPath>
    </defs>
    <title>
        Artboard 1
    </title>
    <path class="cls-2" d="M269.87 229.64c2.11-14.38 4.52-28.68 7-38.36A234.48 234.48 0 0 1 289.26 155l-.07-.08c2.92-6.6 5-10.38 5-10.38a34.87 34.87 0 0 0 16.83 1.5 32.82 32.82 0 0 0-50.66 24.58l-6.16 69.9a37.61 37.61 0 0 1 15.67-10.88z"/>
    <path class="cls-3" d="M266 258.46c1.08-8.6 2.41-18.73 3.89-28.82a37.63 37.63 0 0 0-24.09 28.82z"/>
    <path class="cls-4" d="M373.66 134.51zM371.34 172v-1a32.71 32.71 0 0 1 2.28-12.62c-9.18 9.34-19.41 17.29-33 19.65a49.81 49.81 0 0 1-32-5.18c-8-4.36-13.86-10.86-19.36-17.79a234.48 234.48 0 0 0-12.43 36.27c-2.44 9.68-4.86 24-7 38.36-1.48 10.1-2.81 20.23-3.89 28.82h90.21c.82-5.22 2.39-11.48 5.44-21.31 3.14-10.07 9.88-52.63 9.75-65.2z"/>
    <path class="cls-3" d="M372.64 245.3l-1.29-73.93v.63c.14 12.57-6.6 55.13-9.71 65.16-3 9.83-4.62 16.08-5.44 21.31h12.69a37.35 37.35 0 0 1 4.11-9 33.06 33.06 0 0 1-.36-4.17zM294.2 144.55s-2.08 3.78-5 10.38l.07.08c5.5 6.93 11.4 13.43 19.36 17.79a49.81 49.81 0 0 0 32 5.18c13.55-2.36 23.78-10.31 33-19.65a32.92 32.92 0 0 1 11.19-14.46c-3.29-2.78-10.61-8.81-11.14-9.37-13.52 7.19 1.41-2.28-24.69.86-18 2.17-27 8.93-37.9 10.72a34.87 34.87 0 0 1-16.89-1.53z"/>
    <path class="cls-2" d="M373.62 158.34a32.71 32.71 0 0 0-2.28 12.66v.42l1.29 73.93a33.06 33.06 0 0 0 .35 4.18 37.55 37.55 0 0 1 64.64 1.7 32.93 32.93 0 0 0 .64-7L437 169.81a32.82 32.82 0 0 0-63.34-11.47z"/>
    <path class="cls-4" d="M404.8 231.87a37.61 37.61 0 0 0-35.92 26.6h71.85a37.59 37.59 0 0 0-35.92-26.6z"/>
    <path class="cls-5" d="M415.86 87.38c3-42.28-29.29-79-72-82a77.62 77.62 0 0 0-73.52 39.82 75.79 75.79 0 0 0-9.22 31.36c-.74 10.58 3.85 23.85 7.13 33.29 5.39 15.5 12.55 25.83 26 35.12a78.29 78.29 0 0 0 79.89 5.22 76.54 76.54 0 0 0 41.72-62.81z"/>
    <path class="cls-6" d="M263.9 70.66c22-8.75 37.83-3.44 53.18-12 11.59-6.46 10.47-27 20-27.39 15.74-.57 16.61-6 33.16-6 9.13 0-4.62-10.92-20.95-18.3-7.8-3.53-15.5-7.86-22.87-6.77-22.81 3.38-30-.31-49.19 23.45q-16.31 20.14-18.47 39.79c-.38 3.5 1.63 6.72 4.5 7.19a4.34 4.34 0 0 0 .64.03z"/>
    <path class="cls-7" d="M294.4 145.21a78.74 78.74 0 0 0 80.35 5.25 77 77 0 0 0 41.94-63.17c3-42.53-29.46-79.44-72.44-82.45Q333 17.5 322.11 42.29c-10.9 24.79-5.23 34.52-6.13 50.58s-17.82 27.37-20.56 39.29q-2.75 11.93-1.02 13.05z"/>
    <g class="cls-8">
        <g class="cls-9">
            <path class="cls-10" transform="rotate(-86 409.642 76.954)" d="M384.23 63.48h50.83v26.94h-50.83z"/>
        </g>
    </g>
    <g class="cls-11">
        <g class="cls-9">
            <path class="cls-12" transform="rotate(-86 414.566 77.306)" d="M397.58 67.33h33.98v19.95h-33.98z"/>
        </g>
    </g>
    <path class="cls-13" d="M341.52 88.39a3 3 0 0 0 3-3 3 3 0 0 0-3-3 3 3 0 0 0-3 3v.14a3 3 0 0 0 3 2.86z"/>
    <path class="cls-14" d="M315.88 120.3a15.48 15.48 0 0 1 11.51-.47"/>
    <path class="cls-15" d="M315.9 57c-1 6.67-.71 16.43-.26 22.56 1.78 24.27-5 27.85-11.63 37.67s-9.94 12.28-9.81 27.31"/>
    <path class="cls-12" d="M305.81 84.84c0 1.74-3.31 4.55-7.39 4.55S291 86.74 291 84.84s3.31-3.8 7.39-3.8 7.42 1.96 7.42 3.8z"/>
    <path class="cls-16" d="M296 81.29a3.33 3.33 0 0 0-1.69 3 4.13 4.13 0 0 0 8.26 0 3.34 3.34 0 0 0-1.7-3 12.65 12.65 0 0 0-2.43-.24 12.36 12.36 0 0 0-2.44.24z"/>
</svg>
